<mxfile host="app.diagrams.net" agent="Mozilla/5.0 (Macintosh; Intel Mac OS X 10_15_7) AppleWebKit/537.36 (KHTML, like Gecko) Chrome/127.0.0.0 Safari/537.36" version="24.7.7">
  <diagram name="Page-1" id="0ZgixelHr8SRQXoU8CgH">
    <mxGraphModel dx="1207" dy="765" grid="1" gridSize="10" guides="1" tooltips="1" connect="1" arrows="1" fold="1" page="1" pageScale="1" pageWidth="827" pageHeight="1169" math="0" shadow="0">
      <root>
        <mxCell id="0" />
        <mxCell id="1" parent="0" />
        <mxCell id="rdvp-LPeMNY6baNt6bVd-49" value="" style="rounded=0;whiteSpace=wrap;html=1;dashed=1;strokeColor=#d79b00;fillColor=#ffe6cc;" vertex="1" parent="1">
          <mxGeometry x="400" y="440" width="320" height="360" as="geometry" />
        </mxCell>
        <mxCell id="rdvp-LPeMNY6baNt6bVd-21" value="" style="rounded=0;whiteSpace=wrap;html=1;dashed=1;strokeColor=#d79b00;fillColor=#ffe6cc;" vertex="1" parent="1">
          <mxGeometry x="400" y="40" width="320" height="360" as="geometry" />
        </mxCell>
        <mxCell id="rdvp-LPeMNY6baNt6bVd-4" value="" style="rounded=0;whiteSpace=wrap;html=1;dashed=1;strokeColor=#d79b00;fillColor=#ffe6cc;" vertex="1" parent="1">
          <mxGeometry x="40" y="40" width="320" height="200" as="geometry" />
        </mxCell>
        <mxCell id="rdvp-LPeMNY6baNt6bVd-3" value="" style="shape=image;verticalLabelPosition=bottom;labelBackgroundColor=default;verticalAlign=top;aspect=fixed;imageAspect=0;image=data:image/svg+xml,PHN2ZyB4bWxuczp4bGluaz0iaHR0cDovL3d3dy53My5vcmcvMTk5OS94bGluayIgeG1sbnM9Imh0dHA6Ly93d3cudzMub3JnLzIwMDAvc3ZnIiB2ZXJzaW9uPSIxLjEiIHZpZXdCb3g9IjAgMCA0OCA0OCIgaGVpZ2h0PSI0OHB4IiB3aWR0aD0iNDhweCI+JiN4YTsgICAgPHRpdGxlPkljb24tUmVzb3VyY2UvQ29tcHV0ZS9SZXNfQW1hem9uLUVDMl9JbnN0YW5jZV80ODwvdGl0bGU+JiN4YTsgICAgPGcgZmlsbC1ydWxlPSJldmVub2RkIiBmaWxsPSJub25lIiBzdHJva2Utd2lkdGg9IjEiIHN0cm9rZT0ibm9uZSIgaWQ9Ikljb24tUmVzb3VyY2UvQ29tcHV0ZS9SZXNfQW1hem9uLUVDMl9JbnN0YW5jZV80OCI+JiN4YTsgICAgICAgIDxwYXRoIGZpbGw9IiNFRDcxMDAiIGlkPSJBbWF6b24tRUMyLUluc3RhbmNlX1Jlc291cmNlLUljb25fbGlnaHQtYmciIGQ9Ik05LDM5IEwzOSwzOSBMMzksOSBMOSw5IEw5LDM5IFogTTQ2LDEzIEw0NiwxMSBMNDEsMTEgTDQxLDggQzQxLDcuNDQ4IDQwLjU1Miw3IDQwLDcgTDM3LDcgTDM3LDIgTDM1LDIgTDM1LDcgTDMxLDcgTDMxLDIgTDI5LDIgTDI5LDcgTDI1LDcgTDI1LDIgTDIzLDIgTDIzLDcgTDE5LDcgTDE5LDIgTDE3LDIgTDE3LDcgTDEzLDcgTDEzLDIgTDExLDIgTDExLDcgTDgsNyBDNy40NDcsNyA3LDcuNDQ4IDcsOCBMNywxMSBMMiwxMSBMMiwxMyBMNywxMyBMNywxNyBMMiwxNyBMMiwxOSBMNywxOSBMNywyMyBMMiwyMyBMMiwyNSBMNywyNSBMNywyOSBMMiwyOSBMMiwzMSBMNywzMSBMNywzNSBMMiwzNSBMMiwzNyBMNywzNyBMNyw0MCBDNyw0MC41NTMgNy40NDcsNDEgOCw0MSBMMTEsNDEgTDExLDQ2IEwxMyw0NiBMMTMsNDEgTDE3LDQxIEwxNyw0NiBMMTksNDYgTDE5LDQxIEwyMyw0MSBMMjMsNDYgTDI1LDQ2IEwyNSw0MSBMMjksNDEgTDI5LDQ2IEwzMSw0NiBMMzEsNDEgTDM1LDQxIEwzNSw0NiBMMzcsNDYgTDM3LDQxIEw0MCw0MSBDNDAuNTUyLDQxIDQxLDQwLjU1MyA0MSw0MCBMNDEsMzcgTDQ2LDM3IEw0NiwzNSBMNDEsMzUgTDQxLDMxIEw0NiwzMSBMNDYsMjkgTDQxLDI5IEw0MSwyNSBMNDYsMjUgTDQ2LDIzIEw0MSwyMyBMNDEsMTkgTDQ2LDE5IEw0NiwxNyBMNDEsMTcgTDQxLDEzIEw0NiwxMyBaIi8+JiN4YTsgICAgPC9nPiYjeGE7PC9zdmc+;" vertex="1" parent="1">
          <mxGeometry x="50" y="50" width="48" height="48" as="geometry" />
        </mxCell>
        <mxCell id="rdvp-LPeMNY6baNt6bVd-5" value="slave-node-n" style="text;html=1;align=left;verticalAlign=middle;whiteSpace=wrap;rounded=0;labelPosition=center;verticalLabelPosition=middle;spacingLeft=10;fontColor=#D6662A;" vertex="1" parent="1">
          <mxGeometry x="98" y="59" width="120" height="30" as="geometry" />
        </mxCell>
        <mxCell id="rdvp-LPeMNY6baNt6bVd-12" value="" style="shape=image;verticalLabelPosition=bottom;labelBackgroundColor=default;verticalAlign=top;aspect=fixed;imageAspect=0;image=data:image/svg+xml,PHN2ZyB4bWxuczp4bGluaz0iaHR0cDovL3d3dy53My5vcmcvMTk5OS94bGluayIgeG1sbnM9Imh0dHA6Ly93d3cudzMub3JnLzIwMDAvc3ZnIiB2ZXJzaW9uPSIxLjEiIHZpZXdCb3g9IjAgMCA0OCA0OCIgaGVpZ2h0PSI0OHB4IiB3aWR0aD0iNDhweCI+JiN4YTsgICAgPHRpdGxlPkljb24tUmVzb3VyY2UvQW5hbHl0aWNzL1Jlc19BbWF6b24tT3BlblNlYXJjaC1TZXJ2aWNlX0NsdXN0ZXItQWRtaW5pc3RyYXRvci1Ob2RlXzQ4PC90aXRsZT4mI3hhOyAgICA8ZyBmaWxsLXJ1bGU9ImV2ZW5vZGQiIGZpbGw9Im5vbmUiIHN0cm9rZS13aWR0aD0iMSIgc3Ryb2tlPSJub25lIiBpZD0iSWNvbi1SZXNvdXJjZS9BbmFseXRpY3MvUmVzX0FtYXpvbi1PcGVuU2VhcmNoLVNlcnZpY2VfQ2x1c3Rlci1BZG1pbmlzdHJhdG9yLU5vZGVfNDgiPiYjeGE7ICAgICAgICA8cGF0aCBmaWxsPSIjOEM0RkZGIiBpZD0iRmlsbC0xIiBkPSJNMzYuODY4LDMzIEMzNi44NjgsMzAuOTYyIDM1LjIxLDI5LjMwNCAzMy4xNzIsMjkuMzA0IEMzMS4xMzQsMjkuMzA0IDI5LjQ3NiwzMC45NjIgMjkuNDc2LDMzIEMyOS40NzYsMzUuMDM4IDMxLjEzNCwzNi42OTYgMzMuMTcyLDM2LjY5NiBDMzUuMjEsMzYuNjk2IDM2Ljg2OCwzNS4wMzggMzYuODY4LDMzIEwzNi44NjgsMzMgWiBNMzguODY4LDMzIEMzOC44NjgsMzYuMTQxIDM2LjMxMiwzOC42OTYgMzMuMTcyLDM4LjY5NiBDMzAuMDMxLDM4LjY5NiAyNy40NzYsMzYuMTQxIDI3LjQ3NiwzMyBDMjcuNDc2LDI5Ljg1OSAzMC4wMzEsMjcuMzA0IDMzLjE3MiwyNy4zMDQgQzM2LjMxMiwyNy4zMDQgMzguODY4LDI5Ljg1OSAzOC44NjgsMzMgTDM4Ljg2OCwzMyBaIE00NC4xNzIsMzEuNjczIEw0My4yMzYsMzEuNzI3IEM0Mi43NzcsMzEuNzUgNDIuMzExLDMxLjQyNiA0Mi4yMDQsMzAuOTQ5IEM0MS45NzIsMjkuOTI1IDQxLjU3LDI4Ljk1NCA0MS4wMDgsMjguMDY1IEM0MC43NDcsMjcuNjUxIDQwLjgyMywyNy4xMSA0MS4xODcsMjYuNzg1IEw0MS44ODgsMjYuMTYgTDQwLjAxMiwyNC4yODQgTDM5LjM4NCwyNC45ODggQzM5LjA1NiwyNS4zNTMgMzguNTE1LDI1LjQyOCAzOC4xMDMsMjUuMTY3IEMzNy4yMTYsMjQuNjA2IDM2LjI0NywyNC4yMDUgMzUuMjIyLDIzLjk3MyBDMzQuNzQ2LDIzLjg2NSAzNC40MTcsMjMuNDI5IDM0LjQ0NSwyMi45NDEgTDM0LjQ5OCwyMiBMMzEuODQ2LDIyIEwzMS44OTksMjIuOTM5IEMzMS45MjgsMjMuNDI4IDMxLjU5OCwyMy44NjQgMzEuMTIyLDIzLjk3MiBDMzAuMDk2LDI0LjIwNCAyOS4xMjUsMjQuNjA1IDI4LjIzOCwyNS4xNjYgQzI3LjgyNCwyNS40MjYgMjcuMjgyLDI1LjM1MSAyNi45NTgsMjQuOTg2IEwyNi4zMzIsMjQuMjg0IEwyNC40NTYsMjYuMTYgTDI1LjE1OCwyNi43ODYgQzI1LjUyMywyNy4xMTIgMjUuNTk5LDI3LjY1NCAyNS4zMzgsMjguMDY3IEMyNC43NzUsMjguOTU3IDI0LjM3MiwyOS45MjYgMjQuMTQsMzAuOTUgQzI0LjAzMSwzMS40MjYgMjMuNTYxLDMxLjc1IDIzLjEwOCwzMS43MjcgTDIyLjE3MiwzMS42NzMgTDIyLjE3MiwzNC4zMjYgTDIzLjEwNSwzNC4yNzMgQzIzLjU2OSwzNC4yNTUgMjQuMDMxLDM0LjU3NSAyNC4xMzgsMzUuMDUzIEMyNC4zNjcsMzYuMDc2IDI0Ljc2OSwzNy4wNDcgMjUuMzMyLDM3Ljk0IEMyNS41OTMsMzguMzU0IDI1LjUxNiwzOC44OTUgMjUuMTUxLDM5LjIyIEwyNC40NTYsMzkuODQgTDI2LjMzMiw0MS43MTYgTDI2Ljk1Myw0MS4wMiBDMjcuMjc4LDQwLjY1MyAyNy44MjEsNDAuNTc5IDI4LjIzMyw0MC44NCBDMjkuMTI1LDQxLjQwNCAzMC4wOTcsNDEuODA3IDMxLjEyMiw0Mi4wMzggQzMxLjU5OCw0Mi4xNDYgMzEuOTI4LDQyLjU4MyAzMS44OTksNDMuMDcxIEwzMS44NDcsNDQgTDM0LjQ5OCw0NCBMMzQuNDQ1LDQzLjA3MiBDMzQuNDE3LDQyLjU4MyAzNC43NDYsNDIuMTQ3IDM1LjIyMiw0Mi4wNCBDMzYuMjUxLDQxLjgwNyAzNy4yMjMsNDEuNDA0IDM4LjExMyw0MC44NDIgQzM4LjUyNSw0MC41ODIgMzkuMDY3LDQwLjY1NiAzOS4zOTMsNDEuMDIyIEw0MC4wMTMsNDEuNzE2IEw0MS44ODgsMzkuODQgTDQxLjE5LDM5LjIxOCBDNDAuODI2LDM4Ljg5MyA0MC43NSwzOC4zNTIgNDEuMDExLDM3LjkzOCBDNDEuNTczLDM3LjA0NSA0MS45NzUsMzYuMDc0IDQyLjIwNSwzNS4wNTIgQzQyLjMxMiwzNC41NzUgNDIuNzYzLDM0LjI1NSA0My4yMzcsMzQuMjczIEw0NC4xNzIsMzQuMzI2IEw0NC4xNzIsMzEuNjczIFogTTQ1Ljg1OCwyOS44ODggQzQ2LjA1OCwzMC4wNzcgNDYuMTcyLDMwLjM0IDQ2LjE3MiwzMC42MTUgTDQ2LjE3MiwzNS4zODUgQzQ2LjE3MiwzNS42NiA0Ni4wNTgsMzUuOTIzIDQ1Ljg1OCwzNi4xMTIgQzQ1LjY1OSwzNi4zIDQ1LjM4OCwzNi4zOTcgNDUuMTE1LDM2LjM4MyBMNDMuOTM3LDM2LjMxNiBDNDMuNzMsMzYuOTkgNDMuNDYxLDM3LjY0MiA0My4xMywzOC4yNjggTDQ0LjAxLDM5LjA1MyBDNDQuMjE1LDM5LjIzNiA0NC4zMzYsMzkuNDk2IDQ0LjM0NCwzOS43NzEgQzQ0LjM1MSw0MC4wNDUgNDQuMjQ1LDQwLjMxMiA0NC4wNTEsNDAuNTA2IEw0MC42NzgsNDMuODc5IEM0MC40ODMsNDQuMDc0IDQwLjE5NSw0NC4xODIgMzkuOTQyLDQ0LjE3MSBDMzkuNjY3LDQ0LjE2NCAzOS40MDcsNDQuMDQyIDM5LjIyNCw0My44MzcgTDM4LjQ0Myw0Mi45NjEgQzM3LjgxOCw0My4yOTIgMzcuMTY1LDQzLjU2MyAzNi40ODgsNDMuNzcxIEwzNi41NTUsNDQuOTQyIEMzNi41Nyw0NS4yMTcgMzYuNDcyLDQ1LjQ4NiAzNi4yODMsNDUuNjg2IEMzNi4wOTUsNDUuODg2IDM1LjgzMiw0NiAzNS41NTYsNDYgTDMwLjc4Nyw0NiBDMzAuNTEyLDQ2IDMwLjI0OSw0NS44ODYgMzAuMDU5LDQ1LjY4NiBDMjkuODcxLDQ1LjQ4NiAyOS43NzMsNDUuMjE3IDI5Ljc4OSw0NC45NDIgTDI5Ljg1Niw0My43NyBDMjkuMTgxLDQzLjU2MiAyOC41MjgsNDMuMjkxIDI3LjkwMyw0Mi45NTkgTDI3LjExOSw0My44MzcgQzI2LjkzNiw0NC4wNDMgMjYuNjc3LDQ0LjE2NCAyNi40MDEsNDQuMTcxIEMyNi4xMjksNDQuMTc5IDI1Ljg2LDQ0LjA3NCAyNS42NjYsNDMuODc5IEwyMi4yOTMsNDAuNTA2IEMyMi4wOTgsNDAuMzEyIDIxLjk5Miw0MC4wNDUgMjIsMzkuNzcgQzIyLjAwOCwzOS40OTUgMjIuMTI5LDM5LjIzNSAyMi4zMzUsMzkuMDUyIEwyMy4yMTMsMzguMjY5IEMyMi44ODIsMzcuNjQ0IDIyLjYxMSwzNi45OTEgMjIuNDA1LDM2LjMxNiBMMjEuMjI4LDM2LjM4MyBDMjAuOTU5LDM2LjM5OCAyMC42ODQsMzYuMyAyMC40ODUsMzYuMTEyIEMyMC4yODUsMzUuOTIzIDIwLjE3MiwzNS42NiAyMC4xNzIsMzUuMzg1IEwyMC4xNzIsMzAuNjE1IEMyMC4xNzIsMzAuMzQgMjAuMjg1LDMwLjA3NyAyMC40ODUsMjkuODg4IEMyMC42ODQsMjkuNjk5IDIwLjk1OCwyOS42MDQgMjEuMjI4LDI5LjYxNiBMMjIuNDEsMjkuNjg0IEMyMi42MTcsMjkuMDEgMjIuODg4LDI4LjM1OSAyMy4yMTksMjcuNzM2IEwyMi4zMzUsMjYuOTQ4IEMyMi4xMjksMjYuNzY1IDIyLjAwOCwyNi41MDUgMjIsMjYuMjMgQzIxLjk5MiwyNS45NTUgMjIuMDk4LDI1LjY4OSAyMi4yOTMsMjUuNDk1IEwyNS42NjYsMjIuMTIyIEMyNS44NiwyMS45MjcgMjYuMTMxLDIxLjgxNyAyNi40MDEsMjEuODI5IEMyNi42NzcsMjEuODM3IDI2LjkzNSwyMS45NTggMjcuMTE5LDIyLjE2MyBMMjcuOTA4LDIzLjA0NyBDMjguNTMsMjIuNzE3IDI5LjE4MSwyMi40NDcgMjkuODU2LDIyLjI0IEwyOS43ODksMjEuMDU3IEMyOS43NzMsMjAuNzgyIDI5Ljg3MSwyMC41MTMgMzAuMDYsMjAuMzEzIEMzMC4yNDksMjAuMTEzIDMwLjUxMiwyMCAzMC43ODcsMjAgTDM1LjU1NiwyMCBDMzUuODMyLDIwIDM2LjA5NSwyMC4xMTMgMzYuMjgzLDIwLjMxMiBDMzYuNDcyLDIwLjUxMyAzNi41NywyMC43ODIgMzYuNTU1LDIxLjA1NiBMMzYuNDg4LDIyLjI0MiBDMzcuMTYxLDIyLjQ0OSAzNy44MTEsMjIuNzE5IDM4LjQzMywyMy4wNDggTDM5LjIyNCwyMi4xNjMgQzM5LjQwOCwyMS45NTggMzkuNjY3LDIxLjgzNyAzOS45NDIsMjEuODI5IEM0MC4yMiwyMS44MTQgNDAuNDgzLDIxLjkyNyA0MC42NzgsMjIuMTIyIEw0NC4wNTEsMjUuNDk1IEM0NC4yNDUsMjUuNjg5IDQ0LjM1MSwyNS45NTUgNDQuMzQ0LDI2LjIzIEM0NC4zMzYsMjYuNTA1IDQ0LjIxNSwyNi43NjUgNDQuMDEsMjYuOTQ4IEw0My4xMjcsMjcuNzM1IEM0My40NTgsMjguMzU4IDQzLjcyNywyOS4wMSA0My45MzUsMjkuNjg0IEw0NS4xMTUsMjkuNjE2IEM0NS4zODgsMjkuNjA1IDQ1LjY1OSwyOS42OTkgNDUuODU4LDI5Ljg4OCBMNDUuODU4LDI5Ljg4OCBaIE03LDQ0IEwxOSw0NCBMMTksNDYgTDcsNDYgQzQuMjQzLDQ2IDIsNDMuNzU3IDIsNDEgTDIsNyBDMiw0LjI0MyA0LjI0MywyIDcsMiBMNDEsMiBDNDMuNzU3LDIgNDYsNC4yNDMgNDYsNyBMNDYsMjAgTDQ0LDIwIEw0NCw3IEM0NCw1LjM0NiA0Mi42NTQsNCA0MSw0IEw3LDQgQzUuMzQ2LDQgNCw1LjM0NiA0LDcgTDQsNDEgQzQsNDIuNjU0IDUuMzQ2LDQ0IDcsNDQgTDcsNDQgWiIvPiYjeGE7ICAgIDwvZz4mI3hhOzwvc3ZnPg==;" vertex="1" parent="1">
          <mxGeometry x="94" y="130" width="48" height="48" as="geometry" />
        </mxCell>
        <mxCell id="rdvp-LPeMNY6baNt6bVd-13" value="opensearch-manager-1" style="text;html=1;align=center;verticalAlign=middle;whiteSpace=wrap;rounded=0;fontColor=#6547C0;" vertex="1" parent="1">
          <mxGeometry x="50" y="178" width="136" height="30" as="geometry" />
        </mxCell>
        <mxCell id="rdvp-LPeMNY6baNt6bVd-64" style="edgeStyle=orthogonalEdgeStyle;rounded=0;orthogonalLoop=1;jettySize=auto;html=1;exitX=1;exitY=0.5;exitDx=0;exitDy=0;entryX=0;entryY=0.5;entryDx=0;entryDy=0;dashed=1;dashPattern=8 8;flowAnimation=1;strokeColor=#6547C0;" edge="1" parent="1" source="rdvp-LPeMNY6baNt6bVd-18" target="rdvp-LPeMNY6baNt6bVd-34">
          <mxGeometry relative="1" as="geometry" />
        </mxCell>
        <mxCell id="rdvp-LPeMNY6baNt6bVd-65" style="edgeStyle=orthogonalEdgeStyle;rounded=0;orthogonalLoop=1;jettySize=auto;html=1;exitX=1;exitY=0.5;exitDx=0;exitDy=0;entryX=0;entryY=0.5;entryDx=0;entryDy=0;dashed=1;dashPattern=8 8;strokeColor=#6547C0;flowAnimation=1;startArrow=classic;startFill=1;" edge="1" parent="1" source="rdvp-LPeMNY6baNt6bVd-18" target="rdvp-LPeMNY6baNt6bVd-55">
          <mxGeometry relative="1" as="geometry" />
        </mxCell>
        <mxCell id="rdvp-LPeMNY6baNt6bVd-18" value="" style="shape=image;verticalLabelPosition=bottom;labelBackgroundColor=default;verticalAlign=top;aspect=fixed;imageAspect=0;image=data:image/svg+xml,PHN2ZyB4bWxuczp4bGluaz0iaHR0cDovL3d3dy53My5vcmcvMTk5OS94bGluayIgeG1sbnM9Imh0dHA6Ly93d3cudzMub3JnLzIwMDAvc3ZnIiB2ZXJzaW9uPSIxLjEiIHZpZXdCb3g9IjAgMCA0OCA0OCIgaGVpZ2h0PSI0OHB4IiB3aWR0aD0iNDhweCI+JiN4YTsgICAgPHRpdGxlPkljb24tUmVzb3VyY2UvQW5hbHl0aWNzL1Jlc19BbWF6b24tT3BlblNlYXJjaC1TZXJ2aWNlX09wZW5TZWFyY2gtRGFzaGJvYXJkc180ODwvdGl0bGU+JiN4YTsgICAgPGcgZmlsbC1ydWxlPSJldmVub2RkIiBmaWxsPSJub25lIiBzdHJva2Utd2lkdGg9IjEiIHN0cm9rZT0ibm9uZSIgaWQ9Ikljb24tUmVzb3VyY2UvQW5hbHl0aWNzL1Jlc19BbWF6b24tT3BlblNlYXJjaC1TZXJ2aWNlX09wZW5TZWFyY2gtRGFzaGJvYXJkc180OCI+JiN4YTsgICAgICAgIDxwYXRoIGZpbGw9IiM4QzRGRkYiIGlkPSJGaWxsLTEiIGQ9Ik0yNy41NCwyOCBMMjkuMTg2LDI4IEwzMC45ODUsMzAuNDM2IEMzMS4yMTMsMzAuNzQ0IDMxLjU5OSwzMC44OTggMzEuOTczLDMwLjgyNSBDMzIuMzUsMzAuNzU1IDMyLjY1MywzMC40NzYgMzIuNzU0LDMwLjEwNiBMMzQuMjQzLDI0LjY4NyBMMzYuODM3LDM0IEwyNC45NjEsMzQgTDI3LjU0LDI4IFogTTM1LjE5OSwyMC42NjcgQzM1LjA3OSwyMC4yMzQgMzQuNjg2LDE5LjkzNSAzNC4yMzYsMTkuOTM1IEwzNC4yMzQsMTkuOTM1IEMzMy43ODUsMTkuOTM2IDMzLjM5MSwyMC4yMzYgMzMuMjcyLDIwLjY3IEwzMS4zNzEsMjcuNTkxIEwzMC40OTYsMjYuNDA2IEMzMC4zMDgsMjYuMTUxIDMwLjAwOSwyNiAyOS42OTEsMjYgTDI2Ljg4MiwyNiBDMjYuNDgyLDI2IDI2LjEyMSwyNi4yMzggMjUuOTYzLDI2LjYwNSBMMjIuNzg0LDM0IEwyMS4wMjMsMzQgTDIxLjAyMywzNiBMNDEuMDIzLDM2IEw0MS4wMjMsMzQgTDM4LjkxMiwzNCBMMzUuMTk5LDIwLjY2NyBaIE0xMS4wMjMsMzYgTDEzLjAyMywzNiBMMTMuMDIzLDIzIEwxMS4wMjMsMjMgTDExLjAyMywzNiBaIE0xNS4wMjMsMzYgTDE3LjAyMywzNiBMMTcuMDIzLDIxIEwxNS4wMjMsMjEgTDE1LjAyMywzNiBaIE03LjAyMywzNiBMOS4wMjMsMzYgTDkuMDIzLDI4IEw3LjAyMywyOCBMNy4wMjMsMzYgWiBNMTQuMDIzLDE0IEwxNi4wMjMsMTQgTDE2LjAyMywxMiBMMTQuMDIzLDEyIEwxNC4wMjMsMTQgWiBNMTAuMDIzLDE0IEwxMi4wMjMsMTQgTDEyLjAyMywxMiBMMTAuMDIzLDEyIEwxMC4wMjMsMTQgWiBNNi4wMjMsMTQgTDguMDIzLDE0IEw4LjAyMywxMiBMNi4wMjMsMTIgTDYuMDIzLDE0IFogTTQsMzkgTDQuMDE4LDE3IEw0NC4wMjMsMTcgTDQ0LjAyMywzOC45OTQgTDQsMzkgWiBNNDQuMDIzLDEwIEw0NC4wMjMsMTUgTDQuMDE5LDE1IEw0LjAyMywxMCBMNDQuMDIzLDEwIFogTTQ0LjE0Niw4IEwzLjksOCBDMi44NjUsOCAyLjAyMyw4Ljg0MiAyLjAyMyw5Ljg3NSBMMS45OTk5OTY0MiwzOS4xMjggQzEuOTk4LDQwLjE1NCAyLjgzNCw0MC45OTQgMy44Nyw0MSBMNDQuMTQ2LDQwLjk5NCBDNDUuMTgyLDQwLjk5NCA0Ni4wMjMsNDAuMTUyIDQ2LjAyMywzOS4xMTcgTDQ2LjAyMyw5Ljg3NyBDNDYuMDIzLDguODQyIDQ1LjE4Miw4IDQ0LjE0Niw4IEw0NC4xNDYsOCBaIi8+JiN4YTsgICAgPC9nPiYjeGE7PC9zdmc+;" vertex="1" parent="1">
          <mxGeometry x="254" y="130" width="48" height="48" as="geometry" />
        </mxCell>
        <mxCell id="rdvp-LPeMNY6baNt6bVd-19" value="opensearch-dashboards" style="text;html=1;align=center;verticalAlign=middle;whiteSpace=wrap;rounded=0;fontColor=#6547C0;" vertex="1" parent="1">
          <mxGeometry x="210" y="178" width="136" height="30" as="geometry" />
        </mxCell>
        <mxCell id="rdvp-LPeMNY6baNt6bVd-20" value="" style="shape=image;verticalLabelPosition=bottom;labelBackgroundColor=default;verticalAlign=top;aspect=fixed;imageAspect=0;image=data:image/svg+xml,PHN2ZyB4bWxuczp4bGluaz0iaHR0cDovL3d3dy53My5vcmcvMTk5OS94bGluayIgeG1sbnM9Imh0dHA6Ly93d3cudzMub3JnLzIwMDAvc3ZnIiB2ZXJzaW9uPSIxLjEiIHZpZXdCb3g9IjAgMCA0OCA0OCIgaGVpZ2h0PSI0OHB4IiB3aWR0aD0iNDhweCI+JiN4YTsgICAgPHRpdGxlPkljb24tUmVzb3VyY2UvQ29tcHV0ZS9SZXNfQW1hem9uLUVDMl9JbnN0YW5jZV80ODwvdGl0bGU+JiN4YTsgICAgPGcgZmlsbC1ydWxlPSJldmVub2RkIiBmaWxsPSJub25lIiBzdHJva2Utd2lkdGg9IjEiIHN0cm9rZT0ibm9uZSIgaWQ9Ikljb24tUmVzb3VyY2UvQ29tcHV0ZS9SZXNfQW1hem9uLUVDMl9JbnN0YW5jZV80OCI+JiN4YTsgICAgICAgIDxwYXRoIGZpbGw9IiNFRDcxMDAiIGlkPSJBbWF6b24tRUMyLUluc3RhbmNlX1Jlc291cmNlLUljb25fbGlnaHQtYmciIGQ9Ik05LDM5IEwzOSwzOSBMMzksOSBMOSw5IEw5LDM5IFogTTQ2LDEzIEw0NiwxMSBMNDEsMTEgTDQxLDggQzQxLDcuNDQ4IDQwLjU1Miw3IDQwLDcgTDM3LDcgTDM3LDIgTDM1LDIgTDM1LDcgTDMxLDcgTDMxLDIgTDI5LDIgTDI5LDcgTDI1LDcgTDI1LDIgTDIzLDIgTDIzLDcgTDE5LDcgTDE5LDIgTDE3LDIgTDE3LDcgTDEzLDcgTDEzLDIgTDExLDIgTDExLDcgTDgsNyBDNy40NDcsNyA3LDcuNDQ4IDcsOCBMNywxMSBMMiwxMSBMMiwxMyBMNywxMyBMNywxNyBMMiwxNyBMMiwxOSBMNywxOSBMNywyMyBMMiwyMyBMMiwyNSBMNywyNSBMNywyOSBMMiwyOSBMMiwzMSBMNywzMSBMNywzNSBMMiwzNSBMMiwzNyBMNywzNyBMNyw0MCBDNyw0MC41NTMgNy40NDcsNDEgOCw0MSBMMTEsNDEgTDExLDQ2IEwxMyw0NiBMMTMsNDEgTDE3LDQxIEwxNyw0NiBMMTksNDYgTDE5LDQxIEwyMyw0MSBMMjMsNDYgTDI1LDQ2IEwyNSw0MSBMMjksNDEgTDI5LDQ2IEwzMSw0NiBMMzEsNDEgTDM1LDQxIEwzNSw0NiBMMzcsNDYgTDM3LDQxIEw0MCw0MSBDNDAuNTUyLDQxIDQxLDQwLjU1MyA0MSw0MCBMNDEsMzcgTDQ2LDM3IEw0NiwzNSBMNDEsMzUgTDQxLDMxIEw0NiwzMSBMNDYsMjkgTDQxLDI5IEw0MSwyNSBMNDYsMjUgTDQ2LDIzIEw0MSwyMyBMNDEsMTkgTDQ2LDE5IEw0NiwxNyBMNDEsMTcgTDQxLDEzIEw0NiwxMyBaIi8+JiN4YTsgICAgPC9nPiYjeGE7PC9zdmc+;" vertex="1" parent="1">
          <mxGeometry x="410" y="50" width="48" height="48" as="geometry" />
        </mxCell>
        <mxCell id="rdvp-LPeMNY6baNt6bVd-22" value="slave-node-n+1" style="text;html=1;align=left;verticalAlign=middle;whiteSpace=wrap;rounded=0;labelPosition=center;verticalLabelPosition=middle;spacingLeft=10;fontColor=#D6662A;" vertex="1" parent="1">
          <mxGeometry x="458" y="59" width="120" height="30" as="geometry" />
        </mxCell>
        <mxCell id="rdvp-LPeMNY6baNt6bVd-46" style="edgeStyle=orthogonalEdgeStyle;rounded=0;orthogonalLoop=1;jettySize=auto;html=1;exitX=1;exitY=0.5;exitDx=0;exitDy=0;entryX=0;entryY=0.5;entryDx=0;entryDy=0;dashed=1;strokeColor=#6547C0;flowAnimation=1;dashPattern=8 8;" edge="1" parent="1" source="rdvp-LPeMNY6baNt6bVd-34" target="rdvp-LPeMNY6baNt6bVd-43">
          <mxGeometry relative="1" as="geometry" />
        </mxCell>
        <mxCell id="rdvp-LPeMNY6baNt6bVd-47" style="edgeStyle=orthogonalEdgeStyle;rounded=0;orthogonalLoop=1;jettySize=auto;html=1;entryX=0;entryY=0.5;entryDx=0;entryDy=0;dashed=1;strokeColor=#6547C0;flowAnimation=1;dashPattern=8 8;" edge="1" parent="1" source="rdvp-LPeMNY6baNt6bVd-34" target="rdvp-LPeMNY6baNt6bVd-41">
          <mxGeometry relative="1" as="geometry" />
        </mxCell>
        <mxCell id="rdvp-LPeMNY6baNt6bVd-48" style="edgeStyle=orthogonalEdgeStyle;rounded=0;orthogonalLoop=1;jettySize=auto;html=1;entryX=0;entryY=0.5;entryDx=0;entryDy=0;dashed=1;strokeColor=#6547C0;flowAnimation=1;dashPattern=8 8;" edge="1" parent="1" source="rdvp-LPeMNY6baNt6bVd-34" target="rdvp-LPeMNY6baNt6bVd-36">
          <mxGeometry relative="1" as="geometry" />
        </mxCell>
        <mxCell id="rdvp-LPeMNY6baNt6bVd-34" value="" style="shape=image;verticalLabelPosition=bottom;labelBackgroundColor=default;verticalAlign=top;aspect=fixed;imageAspect=0;image=data:image/svg+xml,PHN2ZyB4bWxuczp4bGluaz0iaHR0cDovL3d3dy53My5vcmcvMTk5OS94bGluayIgeG1sbnM9Imh0dHA6Ly93d3cudzMub3JnLzIwMDAvc3ZnIiB2ZXJzaW9uPSIxLjEiIHZpZXdCb3g9IjAgMCA0OCA0OCIgaGVpZ2h0PSI0OHB4IiB3aWR0aD0iNDhweCI+JiN4YTsgICAgPHRpdGxlPkljb24tUmVzb3VyY2UvQW5hbHl0aWNzL1Jlc19BbWF6b24tT3BlblNlYXJjaC1TZXJ2aWNlX0RhdGEtTm9kZV80ODwvdGl0bGU+JiN4YTsgICAgPGcgZmlsbC1ydWxlPSJldmVub2RkIiBmaWxsPSJub25lIiBzdHJva2Utd2lkdGg9IjEiIHN0cm9rZT0ibm9uZSIgaWQ9Ikljb24tUmVzb3VyY2UvQW5hbHl0aWNzL1Jlc19BbWF6b24tT3BlblNlYXJjaC1TZXJ2aWNlX0RhdGEtTm9kZV80OCI+JiN4YTsgICAgICAgIDxwYXRoIGZpbGw9IiM4QzRGRkYiIGlkPSJGaWxsLTEiIGQ9Ik00My45MTEsNDIuNTEyNyBDNDMuOTQ0LDQyLjI2NTcgNDMuODQ5LDQyLjEzNzcgNDMuNzc0LDQyLjA2MjcgTDM4LjIxMiwzNi42NDk3IEMzNy44MDgsMzcuMTY4NyAzNy4zNTgsMzcuNjQ2NyAzNi44NjgsMzguMDg0NyBMNDIuMjU2LDQzLjU5ODcgQzQyLjU5Myw0My45MzI3IDQzLjE2Nyw0My42MDU3IDQzLjQ3Myw0My4zMDA3IEM0My43MTgsNDMuMDU1NyA0My44NzcsNDIuNzY4NyA0My45MTEsNDIuNTEyNyBMNDMuOTExLDQyLjUxMjcgWiBNMjkuNTkxLDM4Ljg3OTcgQzM0LjUyLDM4Ljg3OTcgMzguNTMsMzQuODY5NyAzOC41MywyOS45Mzk3IEMzOC41MywyNS4wMTA3IDM0LjUyLDIwLjk5OTcgMjkuNTkxLDIwLjk5OTcgQzI0LjY2MSwyMC45OTk3IDIwLjY1MSwyNS4wMTA3IDIwLjY1MSwyOS45Mzk3IEMyMC42NTEsMzQuODY5NyAyNC42NjEsMzguODc5NyAyOS41OTEsMzguODc5NyBMMjkuNTkxLDM4Ljg3OTcgWiBNNDUuMTc5LDQwLjYzODcgQzQ1Ljc1MSw0MS4yMTE3IDQ2LjAwMiw0MS45Njc3IDQ1Ljg5Myw0Mi43NzY3IEM0NS44MDIsNDMuNDcwNyA0NS40NDMsNDQuMTU4NyA0NC44ODcsNDQuNzE1NyBDNDQuMjEzLDQ1LjM4ODcgNDMuMzg5LDQ1LjczMzcgNDIuNjA0LDQ1LjczMzcgQzQxLjk1LDQ1LjczMzcgNDEuMzIzLDQ1LjQ5MjcgNDAuODM0LDQ1LjAwNTcgTDM1LjI0NywzOS4yODY3IEMzMy41OTQsNDAuMjkwNyAzMS42NjIsNDAuODc5NyAyOS41OTEsNDAuODc5NyBDMjMuNTU4LDQwLjg3OTcgMTguNjUxLDM1Ljk3MTcgMTguNjUxLDI5LjkzOTcgQzE4LjY1MSwyMy45MDc3IDIzLjU1OCwxOC45OTk3IDI5LjU5MSwxOC45OTk3IEMzNS42MjMsMTguOTk5NyA0MC41MywyMy45MDc3IDQwLjUzLDI5LjkzOTcgQzQwLjUzLDMxLjczODcgNDAuMDg2LDMzLjQzMjcgMzkuMzE0LDM0LjkzMDcgTDQ1LjE3OSw0MC42Mzg3IFogTTQ2LDYuOTk5NyBMNDYsMjguOTk5NyBMNDQsMjguOTk5NyBMNDQsNi45OTk3IEM0NCw1LjM0NTcgNDIuNjU0LDMuOTk5NyA0MSwzLjk5OTcgTDcsMy45OTk3IEM1LjM0NiwzLjk5OTcgNCw1LjM0NTcgNCw2Ljk5OTcgTDQsNDAuOTk5NyBDNCw0Mi42NTQ3IDUuMzQ2LDQzLjk5OTcgNyw0My45OTk3IEwyOSw0My45OTk3IEwyOSw0NS45OTk3IEw3LDQ1Ljk5OTcgQzQuMjQzLDQ1Ljk5OTcgMiw0My43NTY3IDIsNDAuOTk5NyBMMiw2Ljk5OTcgQzIsNC4yNDI3IDQuMjQzLDEuOTk5NyA3LDEuOTk5NyBMNDEsMS45OTk3IEM0My43NTcsMS45OTk3IDQ2LDQuMjQyNyA0Niw2Ljk5OTcgTDQ2LDYuOTk5NyBaIi8+JiN4YTsgICAgPC9nPiYjeGE7PC9zdmc+;" vertex="1" parent="1">
          <mxGeometry x="454" y="130" width="48" height="48" as="geometry" />
        </mxCell>
        <mxCell id="rdvp-LPeMNY6baNt6bVd-35" value="openseach-data-1" style="text;html=1;align=center;verticalAlign=middle;whiteSpace=wrap;rounded=0;fontColor=#6547C0;" vertex="1" parent="1">
          <mxGeometry x="410" y="178" width="136" height="30" as="geometry" />
        </mxCell>
        <mxCell id="rdvp-LPeMNY6baNt6bVd-36" value="" style="shape=image;verticalLabelPosition=bottom;labelBackgroundColor=default;verticalAlign=top;aspect=fixed;imageAspect=0;image=data:image/svg+xml,PHN2ZyB4bWxuczp4bGluaz0iaHR0cDovL3d3dy53My5vcmcvMTk5OS94bGluayIgeG1sbnM9Imh0dHA6Ly93d3cudzMub3JnLzIwMDAvc3ZnIiB2ZXJzaW9uPSIxLjEiIHZpZXdCb3g9IjAgMCA0OCA0OCIgaGVpZ2h0PSI0OHB4IiB3aWR0aD0iNDhweCI+JiN4YTsgICAgPHRpdGxlPkljb24tUmVzb3VyY2UvQW5hbHl0aWNzL1Jlc19BbWF6b24tT3BlblNlYXJjaC1TZXJ2aWNlX0luZGV4XzQ4PC90aXRsZT4mI3hhOyAgICA8ZyBmaWxsLXJ1bGU9ImV2ZW5vZGQiIGZpbGw9Im5vbmUiIHN0cm9rZS13aWR0aD0iMSIgc3Ryb2tlPSJub25lIiBpZD0iSWNvbi1SZXNvdXJjZS9BbmFseXRpY3MvUmVzX0FtYXpvbi1PcGVuU2VhcmNoLVNlcnZpY2VfSW5kZXhfNDgiPiYjeGE7ICAgICAgICA8cGF0aCBmaWxsPSIjOEM0RkZGIiBpZD0iRmlsbC0xIiBkPSJNMjEsMzIgTDI3LDMyIEwyNywzMCBMMjEsMzAgTDIxLDMyIFogTTE2LDM0IEwzMiwzNCBMMzIsMjggTDE2LDI4IEwxNiwzNCBaIE0zMywyNiBMMTUsMjYgQzE0LjQ0NywyNiAxNCwyNi40NDggMTQsMjcgTDE0LDM1IEMxNCwzNS41NTIgMTQuNDQ3LDM2IDE1LDM2IEwzMywzNiBDMzMuNTUzLDM2IDM0LDM1LjU1MiAzNCwzNSBMMzQsMjcgQzM0LDI2LjQ0OCAzMy41NTMsMjYgMzMsMjYgTDMzLDI2IFogTTExLDEyIEwxNywxMiBMMTcsMTAgTDExLDEwIEwxMSwxMiBaIE0yNSwxMCBMMzEsMTAgTDMxLDggTDI1LDggTDI1LDEwIFogTTQsNDQgTDQ0LDQ0IEw0NCwxNiBMNCwxNiBMNCw0NCBaIE0yMiw0IEwzNCw0IEwzNCw5IEMzNCw5LjU1MiAzNC40NDcsMTAgMzUsMTAgTDQwLDEwIEw0MCwxNCBMMjIsMTQgTDIyLDQgWiBNMzYsNS4yNjEgTDM4LjY0NSw4IEwzNiw4IEwzNiw1LjI2MSBaIE00NSwxNCBMNDIsMTQgTDQyLDkgQzQyLDguNzQxIDQxLjg5OSw4LjQ5MiA0MS43Miw4LjMwNSBMMzUuOTI3LDIuMzA1IEMzNS43MzgsMi4xMSAzNS40NzksMiAzNS4yMDcsMiBMMjEsMiBDMjAuNDQ3LDIgMjAsMi40NDggMjAsMyBMMjAsMTQgTDgsMTQgTDgsNyBMMTgsNyBMMTgsNSBMNyw1IEM2LjQ0Nyw1IDYsNS40NDggNiw2IEw2LDE0IEwzLDE0IEMyLjQ0NywxNCAyLDE0LjQ0OCAyLDE1IEwyLDQ1IEMyLDQ1LjU1MiAyLjQ0Nyw0NiAzLDQ2IEw0NSw0NiBDNDUuNTUzLDQ2IDQ2LDQ1LjU1MiA0Niw0NSBMNDYsMTUgQzQ2LDE0LjQ0OCA0NS41NTMsMTQgNDUsMTQgTDQ1LDE0IFoiLz4mI3hhOyAgICA8L2c+JiN4YTs8L3N2Zz4=;" vertex="1" parent="1">
          <mxGeometry x="622" y="130" width="48" height="48" as="geometry" />
        </mxCell>
        <mxCell id="rdvp-LPeMNY6baNt6bVd-38" value="otlp-metrics" style="text;html=1;align=center;verticalAlign=middle;whiteSpace=wrap;rounded=0;fontColor=#6547C0;" vertex="1" parent="1">
          <mxGeometry x="578" y="178" width="136" height="30" as="geometry" />
        </mxCell>
        <mxCell id="rdvp-LPeMNY6baNt6bVd-41" value="" style="shape=image;verticalLabelPosition=bottom;labelBackgroundColor=default;verticalAlign=top;aspect=fixed;imageAspect=0;image=data:image/svg+xml,PHN2ZyB4bWxuczp4bGluaz0iaHR0cDovL3d3dy53My5vcmcvMTk5OS94bGluayIgeG1sbnM9Imh0dHA6Ly93d3cudzMub3JnLzIwMDAvc3ZnIiB2ZXJzaW9uPSIxLjEiIHZpZXdCb3g9IjAgMCA0OCA0OCIgaGVpZ2h0PSI0OHB4IiB3aWR0aD0iNDhweCI+JiN4YTsgICAgPHRpdGxlPkljb24tUmVzb3VyY2UvQW5hbHl0aWNzL1Jlc19BbWF6b24tT3BlblNlYXJjaC1TZXJ2aWNlX0luZGV4XzQ4PC90aXRsZT4mI3hhOyAgICA8ZyBmaWxsLXJ1bGU9ImV2ZW5vZGQiIGZpbGw9Im5vbmUiIHN0cm9rZS13aWR0aD0iMSIgc3Ryb2tlPSJub25lIiBpZD0iSWNvbi1SZXNvdXJjZS9BbmFseXRpY3MvUmVzX0FtYXpvbi1PcGVuU2VhcmNoLVNlcnZpY2VfSW5kZXhfNDgiPiYjeGE7ICAgICAgICA8cGF0aCBmaWxsPSIjOEM0RkZGIiBpZD0iRmlsbC0xIiBkPSJNMjEsMzIgTDI3LDMyIEwyNywzMCBMMjEsMzAgTDIxLDMyIFogTTE2LDM0IEwzMiwzNCBMMzIsMjggTDE2LDI4IEwxNiwzNCBaIE0zMywyNiBMMTUsMjYgQzE0LjQ0NywyNiAxNCwyNi40NDggMTQsMjcgTDE0LDM1IEMxNCwzNS41NTIgMTQuNDQ3LDM2IDE1LDM2IEwzMywzNiBDMzMuNTUzLDM2IDM0LDM1LjU1MiAzNCwzNSBMMzQsMjcgQzM0LDI2LjQ0OCAzMy41NTMsMjYgMzMsMjYgTDMzLDI2IFogTTExLDEyIEwxNywxMiBMMTcsMTAgTDExLDEwIEwxMSwxMiBaIE0yNSwxMCBMMzEsMTAgTDMxLDggTDI1LDggTDI1LDEwIFogTTQsNDQgTDQ0LDQ0IEw0NCwxNiBMNCwxNiBMNCw0NCBaIE0yMiw0IEwzNCw0IEwzNCw5IEMzNCw5LjU1MiAzNC40NDcsMTAgMzUsMTAgTDQwLDEwIEw0MCwxNCBMMjIsMTQgTDIyLDQgWiBNMzYsNS4yNjEgTDM4LjY0NSw4IEwzNiw4IEwzNiw1LjI2MSBaIE00NSwxNCBMNDIsMTQgTDQyLDkgQzQyLDguNzQxIDQxLjg5OSw4LjQ5MiA0MS43Miw4LjMwNSBMMzUuOTI3LDIuMzA1IEMzNS43MzgsMi4xMSAzNS40NzksMiAzNS4yMDcsMiBMMjEsMiBDMjAuNDQ3LDIgMjAsMi40NDggMjAsMyBMMjAsMTQgTDgsMTQgTDgsNyBMMTgsNyBMMTgsNSBMNyw1IEM2LjQ0Nyw1IDYsNS40NDggNiw2IEw2LDE0IEwzLDE0IEMyLjQ0NywxNCAyLDE0LjQ0OCAyLDE1IEwyLDQ1IEMyLDQ1LjU1MiAyLjQ0Nyw0NiAzLDQ2IEw0NSw0NiBDNDUuNTUzLDQ2IDQ2LDQ1LjU1MiA0Niw0NSBMNDYsMTUgQzQ2LDE0LjQ0OCA0NS41NTMsMTQgNDUsMTQgTDQ1LDE0IFoiLz4mI3hhOyAgICA8L2c+JiN4YTs8L3N2Zz4=;" vertex="1" parent="1">
          <mxGeometry x="622" y="220" width="48" height="48" as="geometry" />
        </mxCell>
        <mxCell id="rdvp-LPeMNY6baNt6bVd-42" value="otlp-traces" style="text;html=1;align=center;verticalAlign=middle;whiteSpace=wrap;rounded=0;fontColor=#6547C0;" vertex="1" parent="1">
          <mxGeometry x="578" y="268" width="136" height="30" as="geometry" />
        </mxCell>
        <mxCell id="rdvp-LPeMNY6baNt6bVd-43" value="" style="shape=image;verticalLabelPosition=bottom;labelBackgroundColor=default;verticalAlign=top;aspect=fixed;imageAspect=0;image=data:image/svg+xml,PHN2ZyB4bWxuczp4bGluaz0iaHR0cDovL3d3dy53My5vcmcvMTk5OS94bGluayIgeG1sbnM9Imh0dHA6Ly93d3cudzMub3JnLzIwMDAvc3ZnIiB2ZXJzaW9uPSIxLjEiIHZpZXdCb3g9IjAgMCA0OCA0OCIgaGVpZ2h0PSI0OHB4IiB3aWR0aD0iNDhweCI+JiN4YTsgICAgPHRpdGxlPkljb24tUmVzb3VyY2UvQW5hbHl0aWNzL1Jlc19BbWF6b24tT3BlblNlYXJjaC1TZXJ2aWNlX0luZGV4XzQ4PC90aXRsZT4mI3hhOyAgICA8ZyBmaWxsLXJ1bGU9ImV2ZW5vZGQiIGZpbGw9Im5vbmUiIHN0cm9rZS13aWR0aD0iMSIgc3Ryb2tlPSJub25lIiBpZD0iSWNvbi1SZXNvdXJjZS9BbmFseXRpY3MvUmVzX0FtYXpvbi1PcGVuU2VhcmNoLVNlcnZpY2VfSW5kZXhfNDgiPiYjeGE7ICAgICAgICA8cGF0aCBmaWxsPSIjOEM0RkZGIiBpZD0iRmlsbC0xIiBkPSJNMjEsMzIgTDI3LDMyIEwyNywzMCBMMjEsMzAgTDIxLDMyIFogTTE2LDM0IEwzMiwzNCBMMzIsMjggTDE2LDI4IEwxNiwzNCBaIE0zMywyNiBMMTUsMjYgQzE0LjQ0NywyNiAxNCwyNi40NDggMTQsMjcgTDE0LDM1IEMxNCwzNS41NTIgMTQuNDQ3LDM2IDE1LDM2IEwzMywzNiBDMzMuNTUzLDM2IDM0LDM1LjU1MiAzNCwzNSBMMzQsMjcgQzM0LDI2LjQ0OCAzMy41NTMsMjYgMzMsMjYgTDMzLDI2IFogTTExLDEyIEwxNywxMiBMMTcsMTAgTDExLDEwIEwxMSwxMiBaIE0yNSwxMCBMMzEsMTAgTDMxLDggTDI1LDggTDI1LDEwIFogTTQsNDQgTDQ0LDQ0IEw0NCwxNiBMNCwxNiBMNCw0NCBaIE0yMiw0IEwzNCw0IEwzNCw5IEMzNCw5LjU1MiAzNC40NDcsMTAgMzUsMTAgTDQwLDEwIEw0MCwxNCBMMjIsMTQgTDIyLDQgWiBNMzYsNS4yNjEgTDM4LjY0NSw4IEwzNiw4IEwzNiw1LjI2MSBaIE00NSwxNCBMNDIsMTQgTDQyLDkgQzQyLDguNzQxIDQxLjg5OSw4LjQ5MiA0MS43Miw4LjMwNSBMMzUuOTI3LDIuMzA1IEMzNS43MzgsMi4xMSAzNS40NzksMiAzNS4yMDcsMiBMMjEsMiBDMjAuNDQ3LDIgMjAsMi40NDggMjAsMyBMMjAsMTQgTDgsMTQgTDgsNyBMMTgsNyBMMTgsNSBMNyw1IEM2LjQ0Nyw1IDYsNS40NDggNiw2IEw2LDE0IEwzLDE0IEMyLjQ0NywxNCAyLDE0LjQ0OCAyLDE1IEwyLDQ1IEMyLDQ1LjU1MiAyLjQ0Nyw0NiAzLDQ2IEw0NSw0NiBDNDUuNTUzLDQ2IDQ2LDQ1LjU1MiA0Niw0NSBMNDYsMTUgQzQ2LDE0LjQ0OCA0NS41NTMsMTQgNDUsMTQgTDQ1LDE0IFoiLz4mI3hhOyAgICA8L2c+JiN4YTs8L3N2Zz4=;" vertex="1" parent="1">
          <mxGeometry x="622" y="310" width="48" height="48" as="geometry" />
        </mxCell>
        <mxCell id="rdvp-LPeMNY6baNt6bVd-44" value="otlp-logs" style="text;html=1;align=center;verticalAlign=middle;whiteSpace=wrap;rounded=0;fontColor=#6547C0;" vertex="1" parent="1">
          <mxGeometry x="578" y="358" width="136" height="30" as="geometry" />
        </mxCell>
        <mxCell id="rdvp-LPeMNY6baNt6bVd-50" value="" style="shape=image;verticalLabelPosition=bottom;labelBackgroundColor=default;verticalAlign=top;aspect=fixed;imageAspect=0;image=data:image/svg+xml,PHN2ZyB4bWxuczp4bGluaz0iaHR0cDovL3d3dy53My5vcmcvMTk5OS94bGluayIgeG1sbnM9Imh0dHA6Ly93d3cudzMub3JnLzIwMDAvc3ZnIiB2ZXJzaW9uPSIxLjEiIHZpZXdCb3g9IjAgMCA0OCA0OCIgaGVpZ2h0PSI0OHB4IiB3aWR0aD0iNDhweCI+JiN4YTsgICAgPHRpdGxlPkljb24tUmVzb3VyY2UvQ29tcHV0ZS9SZXNfQW1hem9uLUVDMl9JbnN0YW5jZV80ODwvdGl0bGU+JiN4YTsgICAgPGcgZmlsbC1ydWxlPSJldmVub2RkIiBmaWxsPSJub25lIiBzdHJva2Utd2lkdGg9IjEiIHN0cm9rZT0ibm9uZSIgaWQ9Ikljb24tUmVzb3VyY2UvQ29tcHV0ZS9SZXNfQW1hem9uLUVDMl9JbnN0YW5jZV80OCI+JiN4YTsgICAgICAgIDxwYXRoIGZpbGw9IiNFRDcxMDAiIGlkPSJBbWF6b24tRUMyLUluc3RhbmNlX1Jlc291cmNlLUljb25fbGlnaHQtYmciIGQ9Ik05LDM5IEwzOSwzOSBMMzksOSBMOSw5IEw5LDM5IFogTTQ2LDEzIEw0NiwxMSBMNDEsMTEgTDQxLDggQzQxLDcuNDQ4IDQwLjU1Miw3IDQwLDcgTDM3LDcgTDM3LDIgTDM1LDIgTDM1LDcgTDMxLDcgTDMxLDIgTDI5LDIgTDI5LDcgTDI1LDcgTDI1LDIgTDIzLDIgTDIzLDcgTDE5LDcgTDE5LDIgTDE3LDIgTDE3LDcgTDEzLDcgTDEzLDIgTDExLDIgTDExLDcgTDgsNyBDNy40NDcsNyA3LDcuNDQ4IDcsOCBMNywxMSBMMiwxMSBMMiwxMyBMNywxMyBMNywxNyBMMiwxNyBMMiwxOSBMNywxOSBMNywyMyBMMiwyMyBMMiwyNSBMNywyNSBMNywyOSBMMiwyOSBMMiwzMSBMNywzMSBMNywzNSBMMiwzNSBMMiwzNyBMNywzNyBMNyw0MCBDNyw0MC41NTMgNy40NDcsNDEgOCw0MSBMMTEsNDEgTDExLDQ2IEwxMyw0NiBMMTMsNDEgTDE3LDQxIEwxNyw0NiBMMTksNDYgTDE5LDQxIEwyMyw0MSBMMjMsNDYgTDI1LDQ2IEwyNSw0MSBMMjksNDEgTDI5LDQ2IEwzMSw0NiBMMzEsNDEgTDM1LDQxIEwzNSw0NiBMMzcsNDYgTDM3LDQxIEw0MCw0MSBDNDAuNTUyLDQxIDQxLDQwLjU1MyA0MSw0MCBMNDEsMzcgTDQ2LDM3IEw0NiwzNSBMNDEsMzUgTDQxLDMxIEw0NiwzMSBMNDYsMjkgTDQxLDI5IEw0MSwyNSBMNDYsMjUgTDQ2LDIzIEw0MSwyMyBMNDEsMTkgTDQ2LDE5IEw0NiwxNyBMNDEsMTcgTDQxLDEzIEw0NiwxMyBaIi8+JiN4YTsgICAgPC9nPiYjeGE7PC9zdmc+;" vertex="1" parent="1">
          <mxGeometry x="410" y="450" width="48" height="48" as="geometry" />
        </mxCell>
        <mxCell id="rdvp-LPeMNY6baNt6bVd-51" value="slave-node-n+1" style="text;html=1;align=left;verticalAlign=middle;whiteSpace=wrap;rounded=0;labelPosition=center;verticalLabelPosition=middle;spacingLeft=10;fontColor=#D6662A;" vertex="1" parent="1">
          <mxGeometry x="458" y="459" width="120" height="30" as="geometry" />
        </mxCell>
        <mxCell id="rdvp-LPeMNY6baNt6bVd-52" style="edgeStyle=orthogonalEdgeStyle;rounded=0;orthogonalLoop=1;jettySize=auto;html=1;exitX=1;exitY=0.5;exitDx=0;exitDy=0;entryX=0;entryY=0.5;entryDx=0;entryDy=0;dashed=1;strokeColor=#6547C0;flowAnimation=1;dashPattern=8 8;" edge="1" parent="1" source="rdvp-LPeMNY6baNt6bVd-55" target="rdvp-LPeMNY6baNt6bVd-61">
          <mxGeometry relative="1" as="geometry" />
        </mxCell>
        <mxCell id="rdvp-LPeMNY6baNt6bVd-53" style="edgeStyle=orthogonalEdgeStyle;rounded=0;orthogonalLoop=1;jettySize=auto;html=1;entryX=0;entryY=0.5;entryDx=0;entryDy=0;dashed=1;strokeColor=#6547C0;flowAnimation=1;dashPattern=8 8;" edge="1" parent="1" source="rdvp-LPeMNY6baNt6bVd-55" target="rdvp-LPeMNY6baNt6bVd-59">
          <mxGeometry relative="1" as="geometry" />
        </mxCell>
        <mxCell id="rdvp-LPeMNY6baNt6bVd-54" style="edgeStyle=orthogonalEdgeStyle;rounded=0;orthogonalLoop=1;jettySize=auto;html=1;entryX=0;entryY=0.5;entryDx=0;entryDy=0;dashed=1;strokeColor=#6547C0;flowAnimation=1;dashPattern=8 8;" edge="1" parent="1" source="rdvp-LPeMNY6baNt6bVd-55" target="rdvp-LPeMNY6baNt6bVd-57">
          <mxGeometry relative="1" as="geometry" />
        </mxCell>
        <mxCell id="rdvp-LPeMNY6baNt6bVd-55" value="" style="shape=image;verticalLabelPosition=bottom;labelBackgroundColor=default;verticalAlign=top;aspect=fixed;imageAspect=0;image=data:image/svg+xml,PHN2ZyB4bWxuczp4bGluaz0iaHR0cDovL3d3dy53My5vcmcvMTk5OS94bGluayIgeG1sbnM9Imh0dHA6Ly93d3cudzMub3JnLzIwMDAvc3ZnIiB2ZXJzaW9uPSIxLjEiIHZpZXdCb3g9IjAgMCA0OCA0OCIgaGVpZ2h0PSI0OHB4IiB3aWR0aD0iNDhweCI+JiN4YTsgICAgPHRpdGxlPkljb24tUmVzb3VyY2UvQW5hbHl0aWNzL1Jlc19BbWF6b24tT3BlblNlYXJjaC1TZXJ2aWNlX0RhdGEtTm9kZV80ODwvdGl0bGU+JiN4YTsgICAgPGcgZmlsbC1ydWxlPSJldmVub2RkIiBmaWxsPSJub25lIiBzdHJva2Utd2lkdGg9IjEiIHN0cm9rZT0ibm9uZSIgaWQ9Ikljb24tUmVzb3VyY2UvQW5hbHl0aWNzL1Jlc19BbWF6b24tT3BlblNlYXJjaC1TZXJ2aWNlX0RhdGEtTm9kZV80OCI+JiN4YTsgICAgICAgIDxwYXRoIGZpbGw9IiM4QzRGRkYiIGlkPSJGaWxsLTEiIGQ9Ik00My45MTEsNDIuNTEyNyBDNDMuOTQ0LDQyLjI2NTcgNDMuODQ5LDQyLjEzNzcgNDMuNzc0LDQyLjA2MjcgTDM4LjIxMiwzNi42NDk3IEMzNy44MDgsMzcuMTY4NyAzNy4zNTgsMzcuNjQ2NyAzNi44NjgsMzguMDg0NyBMNDIuMjU2LDQzLjU5ODcgQzQyLjU5Myw0My45MzI3IDQzLjE2Nyw0My42MDU3IDQzLjQ3Myw0My4zMDA3IEM0My43MTgsNDMuMDU1NyA0My44NzcsNDIuNzY4NyA0My45MTEsNDIuNTEyNyBMNDMuOTExLDQyLjUxMjcgWiBNMjkuNTkxLDM4Ljg3OTcgQzM0LjUyLDM4Ljg3OTcgMzguNTMsMzQuODY5NyAzOC41MywyOS45Mzk3IEMzOC41MywyNS4wMTA3IDM0LjUyLDIwLjk5OTcgMjkuNTkxLDIwLjk5OTcgQzI0LjY2MSwyMC45OTk3IDIwLjY1MSwyNS4wMTA3IDIwLjY1MSwyOS45Mzk3IEMyMC42NTEsMzQuODY5NyAyNC42NjEsMzguODc5NyAyOS41OTEsMzguODc5NyBMMjkuNTkxLDM4Ljg3OTcgWiBNNDUuMTc5LDQwLjYzODcgQzQ1Ljc1MSw0MS4yMTE3IDQ2LjAwMiw0MS45Njc3IDQ1Ljg5Myw0Mi43NzY3IEM0NS44MDIsNDMuNDcwNyA0NS40NDMsNDQuMTU4NyA0NC44ODcsNDQuNzE1NyBDNDQuMjEzLDQ1LjM4ODcgNDMuMzg5LDQ1LjczMzcgNDIuNjA0LDQ1LjczMzcgQzQxLjk1LDQ1LjczMzcgNDEuMzIzLDQ1LjQ5MjcgNDAuODM0LDQ1LjAwNTcgTDM1LjI0NywzOS4yODY3IEMzMy41OTQsNDAuMjkwNyAzMS42NjIsNDAuODc5NyAyOS41OTEsNDAuODc5NyBDMjMuNTU4LDQwLjg3OTcgMTguNjUxLDM1Ljk3MTcgMTguNjUxLDI5LjkzOTcgQzE4LjY1MSwyMy45MDc3IDIzLjU1OCwxOC45OTk3IDI5LjU5MSwxOC45OTk3IEMzNS42MjMsMTguOTk5NyA0MC41MywyMy45MDc3IDQwLjUzLDI5LjkzOTcgQzQwLjUzLDMxLjczODcgNDAuMDg2LDMzLjQzMjcgMzkuMzE0LDM0LjkzMDcgTDQ1LjE3OSw0MC42Mzg3IFogTTQ2LDYuOTk5NyBMNDYsMjguOTk5NyBMNDQsMjguOTk5NyBMNDQsNi45OTk3IEM0NCw1LjM0NTcgNDIuNjU0LDMuOTk5NyA0MSwzLjk5OTcgTDcsMy45OTk3IEM1LjM0NiwzLjk5OTcgNCw1LjM0NTcgNCw2Ljk5OTcgTDQsNDAuOTk5NyBDNCw0Mi42NTQ3IDUuMzQ2LDQzLjk5OTcgNyw0My45OTk3IEwyOSw0My45OTk3IEwyOSw0NS45OTk3IEw3LDQ1Ljk5OTcgQzQuMjQzLDQ1Ljk5OTcgMiw0My43NTY3IDIsNDAuOTk5NyBMMiw2Ljk5OTcgQzIsNC4yNDI3IDQuMjQzLDEuOTk5NyA3LDEuOTk5NyBMNDEsMS45OTk3IEM0My43NTcsMS45OTk3IDQ2LDQuMjQyNyA0Niw2Ljk5OTcgTDQ2LDYuOTk5NyBaIi8+JiN4YTsgICAgPC9nPiYjeGE7PC9zdmc+;" vertex="1" parent="1">
          <mxGeometry x="454" y="530" width="48" height="48" as="geometry" />
        </mxCell>
        <mxCell id="rdvp-LPeMNY6baNt6bVd-56" value="openseach-data-2" style="text;html=1;align=center;verticalAlign=middle;whiteSpace=wrap;rounded=0;fontColor=#6547C0;" vertex="1" parent="1">
          <mxGeometry x="410" y="578" width="136" height="30" as="geometry" />
        </mxCell>
        <mxCell id="rdvp-LPeMNY6baNt6bVd-57" value="" style="shape=image;verticalLabelPosition=bottom;labelBackgroundColor=default;verticalAlign=top;aspect=fixed;imageAspect=0;image=data:image/svg+xml,PHN2ZyB4bWxuczp4bGluaz0iaHR0cDovL3d3dy53My5vcmcvMTk5OS94bGluayIgeG1sbnM9Imh0dHA6Ly93d3cudzMub3JnLzIwMDAvc3ZnIiB2ZXJzaW9uPSIxLjEiIHZpZXdCb3g9IjAgMCA0OCA0OCIgaGVpZ2h0PSI0OHB4IiB3aWR0aD0iNDhweCI+JiN4YTsgICAgPHRpdGxlPkljb24tUmVzb3VyY2UvQW5hbHl0aWNzL1Jlc19BbWF6b24tT3BlblNlYXJjaC1TZXJ2aWNlX0luZGV4XzQ4PC90aXRsZT4mI3hhOyAgICA8ZyBmaWxsLXJ1bGU9ImV2ZW5vZGQiIGZpbGw9Im5vbmUiIHN0cm9rZS13aWR0aD0iMSIgc3Ryb2tlPSJub25lIiBpZD0iSWNvbi1SZXNvdXJjZS9BbmFseXRpY3MvUmVzX0FtYXpvbi1PcGVuU2VhcmNoLVNlcnZpY2VfSW5kZXhfNDgiPiYjeGE7ICAgICAgICA8cGF0aCBmaWxsPSIjOEM0RkZGIiBpZD0iRmlsbC0xIiBkPSJNMjEsMzIgTDI3LDMyIEwyNywzMCBMMjEsMzAgTDIxLDMyIFogTTE2LDM0IEwzMiwzNCBMMzIsMjggTDE2LDI4IEwxNiwzNCBaIE0zMywyNiBMMTUsMjYgQzE0LjQ0NywyNiAxNCwyNi40NDggMTQsMjcgTDE0LDM1IEMxNCwzNS41NTIgMTQuNDQ3LDM2IDE1LDM2IEwzMywzNiBDMzMuNTUzLDM2IDM0LDM1LjU1MiAzNCwzNSBMMzQsMjcgQzM0LDI2LjQ0OCAzMy41NTMsMjYgMzMsMjYgTDMzLDI2IFogTTExLDEyIEwxNywxMiBMMTcsMTAgTDExLDEwIEwxMSwxMiBaIE0yNSwxMCBMMzEsMTAgTDMxLDggTDI1LDggTDI1LDEwIFogTTQsNDQgTDQ0LDQ0IEw0NCwxNiBMNCwxNiBMNCw0NCBaIE0yMiw0IEwzNCw0IEwzNCw5IEMzNCw5LjU1MiAzNC40NDcsMTAgMzUsMTAgTDQwLDEwIEw0MCwxNCBMMjIsMTQgTDIyLDQgWiBNMzYsNS4yNjEgTDM4LjY0NSw4IEwzNiw4IEwzNiw1LjI2MSBaIE00NSwxNCBMNDIsMTQgTDQyLDkgQzQyLDguNzQxIDQxLjg5OSw4LjQ5MiA0MS43Miw4LjMwNSBMMzUuOTI3LDIuMzA1IEMzNS43MzgsMi4xMSAzNS40NzksMiAzNS4yMDcsMiBMMjEsMiBDMjAuNDQ3LDIgMjAsMi40NDggMjAsMyBMMjAsMTQgTDgsMTQgTDgsNyBMMTgsNyBMMTgsNSBMNyw1IEM2LjQ0Nyw1IDYsNS40NDggNiw2IEw2LDE0IEwzLDE0IEMyLjQ0NywxNCAyLDE0LjQ0OCAyLDE1IEwyLDQ1IEMyLDQ1LjU1MiAyLjQ0Nyw0NiAzLDQ2IEw0NSw0NiBDNDUuNTUzLDQ2IDQ2LDQ1LjU1MiA0Niw0NSBMNDYsMTUgQzQ2LDE0LjQ0OCA0NS41NTMsMTQgNDUsMTQgTDQ1LDE0IFoiLz4mI3hhOyAgICA8L2c+JiN4YTs8L3N2Zz4=;" vertex="1" parent="1">
          <mxGeometry x="622" y="530" width="48" height="48" as="geometry" />
        </mxCell>
        <mxCell id="rdvp-LPeMNY6baNt6bVd-58" value="otlp-metrics" style="text;html=1;align=center;verticalAlign=middle;whiteSpace=wrap;rounded=0;fontColor=#6547C0;" vertex="1" parent="1">
          <mxGeometry x="578" y="578" width="136" height="30" as="geometry" />
        </mxCell>
        <mxCell id="rdvp-LPeMNY6baNt6bVd-59" value="" style="shape=image;verticalLabelPosition=bottom;labelBackgroundColor=default;verticalAlign=top;aspect=fixed;imageAspect=0;image=data:image/svg+xml,PHN2ZyB4bWxuczp4bGluaz0iaHR0cDovL3d3dy53My5vcmcvMTk5OS94bGluayIgeG1sbnM9Imh0dHA6Ly93d3cudzMub3JnLzIwMDAvc3ZnIiB2ZXJzaW9uPSIxLjEiIHZpZXdCb3g9IjAgMCA0OCA0OCIgaGVpZ2h0PSI0OHB4IiB3aWR0aD0iNDhweCI+JiN4YTsgICAgPHRpdGxlPkljb24tUmVzb3VyY2UvQW5hbHl0aWNzL1Jlc19BbWF6b24tT3BlblNlYXJjaC1TZXJ2aWNlX0luZGV4XzQ4PC90aXRsZT4mI3hhOyAgICA8ZyBmaWxsLXJ1bGU9ImV2ZW5vZGQiIGZpbGw9Im5vbmUiIHN0cm9rZS13aWR0aD0iMSIgc3Ryb2tlPSJub25lIiBpZD0iSWNvbi1SZXNvdXJjZS9BbmFseXRpY3MvUmVzX0FtYXpvbi1PcGVuU2VhcmNoLVNlcnZpY2VfSW5kZXhfNDgiPiYjeGE7ICAgICAgICA8cGF0aCBmaWxsPSIjOEM0RkZGIiBpZD0iRmlsbC0xIiBkPSJNMjEsMzIgTDI3LDMyIEwyNywzMCBMMjEsMzAgTDIxLDMyIFogTTE2LDM0IEwzMiwzNCBMMzIsMjggTDE2LDI4IEwxNiwzNCBaIE0zMywyNiBMMTUsMjYgQzE0LjQ0NywyNiAxNCwyNi40NDggMTQsMjcgTDE0LDM1IEMxNCwzNS41NTIgMTQuNDQ3LDM2IDE1LDM2IEwzMywzNiBDMzMuNTUzLDM2IDM0LDM1LjU1MiAzNCwzNSBMMzQsMjcgQzM0LDI2LjQ0OCAzMy41NTMsMjYgMzMsMjYgTDMzLDI2IFogTTExLDEyIEwxNywxMiBMMTcsMTAgTDExLDEwIEwxMSwxMiBaIE0yNSwxMCBMMzEsMTAgTDMxLDggTDI1LDggTDI1LDEwIFogTTQsNDQgTDQ0LDQ0IEw0NCwxNiBMNCwxNiBMNCw0NCBaIE0yMiw0IEwzNCw0IEwzNCw5IEMzNCw5LjU1MiAzNC40NDcsMTAgMzUsMTAgTDQwLDEwIEw0MCwxNCBMMjIsMTQgTDIyLDQgWiBNMzYsNS4yNjEgTDM4LjY0NSw4IEwzNiw4IEwzNiw1LjI2MSBaIE00NSwxNCBMNDIsMTQgTDQyLDkgQzQyLDguNzQxIDQxLjg5OSw4LjQ5MiA0MS43Miw4LjMwNSBMMzUuOTI3LDIuMzA1IEMzNS43MzgsMi4xMSAzNS40NzksMiAzNS4yMDcsMiBMMjEsMiBDMjAuNDQ3LDIgMjAsMi40NDggMjAsMyBMMjAsMTQgTDgsMTQgTDgsNyBMMTgsNyBMMTgsNSBMNyw1IEM2LjQ0Nyw1IDYsNS40NDggNiw2IEw2LDE0IEwzLDE0IEMyLjQ0NywxNCAyLDE0LjQ0OCAyLDE1IEwyLDQ1IEMyLDQ1LjU1MiAyLjQ0Nyw0NiAzLDQ2IEw0NSw0NiBDNDUuNTUzLDQ2IDQ2LDQ1LjU1MiA0Niw0NSBMNDYsMTUgQzQ2LDE0LjQ0OCA0NS41NTMsMTQgNDUsMTQgTDQ1LDE0IFoiLz4mI3hhOyAgICA8L2c+JiN4YTs8L3N2Zz4=;" vertex="1" parent="1">
          <mxGeometry x="622" y="620" width="48" height="48" as="geometry" />
        </mxCell>
        <mxCell id="rdvp-LPeMNY6baNt6bVd-60" value="otlp-traces" style="text;html=1;align=center;verticalAlign=middle;whiteSpace=wrap;rounded=0;fontColor=#6547C0;" vertex="1" parent="1">
          <mxGeometry x="578" y="668" width="136" height="30" as="geometry" />
        </mxCell>
        <mxCell id="rdvp-LPeMNY6baNt6bVd-61" value="" style="shape=image;verticalLabelPosition=bottom;labelBackgroundColor=default;verticalAlign=top;aspect=fixed;imageAspect=0;image=data:image/svg+xml,PHN2ZyB4bWxuczp4bGluaz0iaHR0cDovL3d3dy53My5vcmcvMTk5OS94bGluayIgeG1sbnM9Imh0dHA6Ly93d3cudzMub3JnLzIwMDAvc3ZnIiB2ZXJzaW9uPSIxLjEiIHZpZXdCb3g9IjAgMCA0OCA0OCIgaGVpZ2h0PSI0OHB4IiB3aWR0aD0iNDhweCI+JiN4YTsgICAgPHRpdGxlPkljb24tUmVzb3VyY2UvQW5hbHl0aWNzL1Jlc19BbWF6b24tT3BlblNlYXJjaC1TZXJ2aWNlX0luZGV4XzQ4PC90aXRsZT4mI3hhOyAgICA8ZyBmaWxsLXJ1bGU9ImV2ZW5vZGQiIGZpbGw9Im5vbmUiIHN0cm9rZS13aWR0aD0iMSIgc3Ryb2tlPSJub25lIiBpZD0iSWNvbi1SZXNvdXJjZS9BbmFseXRpY3MvUmVzX0FtYXpvbi1PcGVuU2VhcmNoLVNlcnZpY2VfSW5kZXhfNDgiPiYjeGE7ICAgICAgICA8cGF0aCBmaWxsPSIjOEM0RkZGIiBpZD0iRmlsbC0xIiBkPSJNMjEsMzIgTDI3LDMyIEwyNywzMCBMMjEsMzAgTDIxLDMyIFogTTE2LDM0IEwzMiwzNCBMMzIsMjggTDE2LDI4IEwxNiwzNCBaIE0zMywyNiBMMTUsMjYgQzE0LjQ0NywyNiAxNCwyNi40NDggMTQsMjcgTDE0LDM1IEMxNCwzNS41NTIgMTQuNDQ3LDM2IDE1LDM2IEwzMywzNiBDMzMuNTUzLDM2IDM0LDM1LjU1MiAzNCwzNSBMMzQsMjcgQzM0LDI2LjQ0OCAzMy41NTMsMjYgMzMsMjYgTDMzLDI2IFogTTExLDEyIEwxNywxMiBMMTcsMTAgTDExLDEwIEwxMSwxMiBaIE0yNSwxMCBMMzEsMTAgTDMxLDggTDI1LDggTDI1LDEwIFogTTQsNDQgTDQ0LDQ0IEw0NCwxNiBMNCwxNiBMNCw0NCBaIE0yMiw0IEwzNCw0IEwzNCw5IEMzNCw5LjU1MiAzNC40NDcsMTAgMzUsMTAgTDQwLDEwIEw0MCwxNCBMMjIsMTQgTDIyLDQgWiBNMzYsNS4yNjEgTDM4LjY0NSw4IEwzNiw4IEwzNiw1LjI2MSBaIE00NSwxNCBMNDIsMTQgTDQyLDkgQzQyLDguNzQxIDQxLjg5OSw4LjQ5MiA0MS43Miw4LjMwNSBMMzUuOTI3LDIuMzA1IEMzNS43MzgsMi4xMSAzNS40NzksMiAzNS4yMDcsMiBMMjEsMiBDMjAuNDQ3LDIgMjAsMi40NDggMjAsMyBMMjAsMTQgTDgsMTQgTDgsNyBMMTgsNyBMMTgsNSBMNyw1IEM2LjQ0Nyw1IDYsNS40NDggNiw2IEw2LDE0IEwzLDE0IEMyLjQ0NywxNCAyLDE0LjQ0OCAyLDE1IEwyLDQ1IEMyLDQ1LjU1MiAyLjQ0Nyw0NiAzLDQ2IEw0NSw0NiBDNDUuNTUzLDQ2IDQ2LDQ1LjU1MiA0Niw0NSBMNDYsMTUgQzQ2LDE0LjQ0OCA0NS41NTMsMTQgNDUsMTQgTDQ1LDE0IFoiLz4mI3hhOyAgICA8L2c+JiN4YTs8L3N2Zz4=;" vertex="1" parent="1">
          <mxGeometry x="622" y="710" width="48" height="48" as="geometry" />
        </mxCell>
        <mxCell id="rdvp-LPeMNY6baNt6bVd-62" value="otlp-logs" style="text;html=1;align=center;verticalAlign=middle;whiteSpace=wrap;rounded=0;fontColor=#6547C0;" vertex="1" parent="1">
          <mxGeometry x="578" y="758" width="136" height="30" as="geometry" />
        </mxCell>
      </root>
    </mxGraphModel>
  </diagram>
</mxfile>
